<svg xmlns="http://www.w3.org/2000/svg" viewBox="0 0 186.96 61.97">
  <defs>
    <style>
      .cls-1 {
        fill: #fff;
      }
    </style>
  </defs>
  <title>Ресурс 1</title>
  <g id="Слой_2" data-name="Слой 2">
    <g id="Слой_1-2" data-name="Слой 1">
      <g>
        <g>
          <g>
            <path class="cls-1" d="M116.5,48.92a1.12,1.12,0,0,1-.1,1.7,8.52,8.52,0,0,1-5.51,1.81c-4.89,0-9-2.94-9-8.91s4.06-8.92,9-8.92A7.88,7.88,0,0,1,116,36.27a1.13,1.13,0,0,1,.13,1.67L115,39.14a1.11,1.11,0,0,1-1.38.19,5.07,5.07,0,0,0-2.69-.8,4.74,4.74,0,0,0-4.85,5,4.59,4.59,0,0,0,4.79,4.91,5.4,5.4,0,0,0,3-.82,1.12,1.12,0,0,1,1.41.12Z"/>
            <path class="cls-1" d="M123.23,36h0a.42.42,0,0,0,.74.21,5.06,5.06,0,0,1,4.16-1.6,6.82,6.82,0,0,1,3.54,1,1.11,1.11,0,0,1,.37,1.46l-.86,1.67a1.14,1.14,0,0,1-1.53.47,4.34,4.34,0,0,0-2.06-.44c-2.19,0-4.2,1.16-4.2,4.27v7.75a1.14,1.14,0,0,1-1.13,1.13h-1.91a1.13,1.13,0,0,1-1.13-1.13V36.21a1.12,1.12,0,0,1,1.13-1.13h1.77A1.13,1.13,0,0,1,123.23,36Z"/>
            <path class="cls-1" d="M151.81,35.7l-9.9,23a.44.44,0,0,1-.41.26h-3.61a.43.43,0,0,1-.4-.61l2.8-6.52a.43.43,0,0,0,0-.35l-6.41-15.78a.44.44,0,0,1,.41-.61h3.88a.44.44,0,0,1,.42.3l2.46,7,1.2,3.57a.45.45,0,0,0,.84,0l1.3-3.48,3-7.11a.45.45,0,0,1,.41-.27h3.64A.44.44,0,0,1,151.81,35.7Z"/>
            <path class="cls-1" d="M154.26,57.83V36.21a1.13,1.13,0,0,1,1.13-1.13h1.77a1.12,1.12,0,0,1,1.11,1h0a.59.59,0,0,0,1,.38,7,7,0,0,1,4.65-1.75c5.19,0,8.64,3.86,8.64,8.82s-3.11,8.81-8.51,8.81A7.94,7.94,0,0,1,159.4,51a.6.6,0,0,0-1,.46v6.4A1.12,1.12,0,0,1,157.3,59h-1.91A1.13,1.13,0,0,1,154.26,57.83Zm14.11-14.31a4.78,4.78,0,1,0-9.56,0,4.78,4.78,0,0,0,9.56,0Z"/>
            <path class="cls-1" d="M181.49,31.92V34a1.12,1.12,0,0,0,1.12,1.12H185a1.13,1.13,0,0,1,1.12,1.13v1.33A1.12,1.12,0,0,1,185,38.7h-2.43a1.13,1.13,0,0,0-1.13,1.13V46a2.09,2.09,0,0,0,2.19,2.39,4.71,4.71,0,0,0,1-.14A1.12,1.12,0,0,1,186,49l.46,1.4a1.14,1.14,0,0,1-.76,1.44,9.32,9.32,0,0,1-2.35.33c-3.65.14-6-1.94-6-6.14V39.83a1.13,1.13,0,0,0-1.13-1.13h-.89a1.12,1.12,0,0,1-1.12-1.13V36.24a1.13,1.13,0,0,1,1.12-1.13h.89A1.13,1.13,0,0,0,177.32,34V31.91a1.13,1.13,0,0,1,1.13-1.13l1.92,0A1.12,1.12,0,0,1,181.49,31.92Z"/>
          </g>
          <g>
            <path class="cls-1" d="M121,7.75h0a.63.63,0,0,0,1.07.34,5.19,5.19,0,0,1,3.9-1.32A6.7,6.7,0,0,1,129.87,8a.65.65,0,0,1,.17.8l-1.31,2.51a.62.62,0,0,1-.9.24,4.13,4.13,0,0,0-2.45-.67,3.89,3.89,0,0,0-4.2,4.27v8.25a.63.63,0,0,1-.63.63h-2.9a.64.64,0,0,1-.64-.63V7.84a.64.64,0,0,1,.64-.63h2.68A.64.64,0,0,1,121,7.75Z"/>
            <path class="cls-1" d="M146.25,7.21h1.81a1.14,1.14,0,0,1,1.13,1.13V22.92a1.13,1.13,0,0,1-1.13,1.13H146.3a1.13,1.13,0,0,1-1.13-1h0a.53.53,0,0,0-.91-.32,7.11,7.11,0,0,1-4.67,1.86c-5,0-8.68-3-8.68-8.95s3.86-8.84,8.78-8.81a6.64,6.64,0,0,1,4.63,1.78.47.47,0,0,0,.81-.31h0A1.13,1.13,0,0,1,146.25,7.21Zm-11.17,8.4a4.83,4.83,0,0,0,5,5.13c6.56,0,6.56-10.22,0-10.22A4.8,4.8,0,0,0,135.08,15.61Z"/>
            <path class="cls-1" d="M166.23,24.05a1.13,1.13,0,0,1-1.13-1.13V15.24c0-2.51-1.34-4.44-3.91-4.51a4.43,4.43,0,0,0-4.45,4.5v7.69a1.13,1.13,0,0,1-1.13,1.13h-1.88a1.13,1.13,0,0,1-1.13-1.13V8.3a1.13,1.13,0,0,1,1.13-1.12h1.6a1.12,1.12,0,0,1,1.12,1h0a.68.68,0,0,0,1.09.46,7.08,7.08,0,0,1,4.59-1.69c4,0,7.14,3,7.14,8.26v7.72a1.12,1.12,0,0,1-1.12,1.13Z"/>
            <path class="cls-1" d="M184.56,10.86a1.12,1.12,0,0,1-1.48.21,6,6,0,0,0-3.39-.89c-2,0-3.07.62-3.07,1.68s1,1.7,3.14,1.84c3.17.21,7.2.92,7.2,5.4,0,3-2.42,5.53-7.24,5.53a10,10,0,0,1-7.06-2.31,1.14,1.14,0,0,1-.18-1.49l.8-1.15a1.1,1.1,0,0,1,1.54-.3,10.1,10.1,0,0,0,5,1.63c1.57,0,3-.78,3-2s-1-1.64-3.35-1.78c-3.17-.24-7-1.4-7-5.23s4-5.26,7.1-5.26a9.45,9.45,0,0,1,5.56,1.45,1.13,1.13,0,0,1,.23,1.67Z"/>
            <path class="cls-1" d="M109.25,4.15V6.22a1.12,1.12,0,0,0,1.12,1.12h2.4a1.13,1.13,0,0,1,1.12,1.13V9.8a1.12,1.12,0,0,1-1.12,1.13h-2.43a1.14,1.14,0,0,0-1.13,1.13v6.15a2.09,2.09,0,0,0,2.19,2.39,4.16,4.16,0,0,0,1-.14,1.12,1.12,0,0,1,1.35.72l.46,1.4a1.13,1.13,0,0,1-.76,1.44,9.24,9.24,0,0,1-2.34.33c-3.66.14-6-1.94-6-6.14V12.06A1.13,1.13,0,0,0,104,10.93h-.89a1.12,1.12,0,0,1-1.12-1.13V8.47a1.13,1.13,0,0,1,1.12-1.13H104a1.12,1.12,0,0,0,1.13-1.12V4.14A1.14,1.14,0,0,1,106.21,3l1.92,0A1.12,1.12,0,0,1,109.25,4.15Z"/>
          </g>
        </g>
        <g>
          <path class="cls-1" d="M59.59,2a5.65,5.65,0,0,0-8,0L24.2,29.43a5.64,5.64,0,0,0,8,8L59.59,10A5.65,5.65,0,0,0,59.59,2Z"/>
          <path class="cls-1" d="M82.5,24.93a5.65,5.65,0,0,0-8,0L47.1,52.34a5.64,5.64,0,0,0,8,8L82.5,32.91a5.65,5.65,0,0,0,0-8Z"/>
          <path class="cls-1" d="M60,24.56a5.65,5.65,0,0,0-8,0L24.56,52a5.64,5.64,0,1,0,8,8L60,32.54a5.65,5.65,0,0,0,0-8Z"/>
          <path class="cls-1" d="M37.05,1.65a5.65,5.65,0,0,0-8,0L1.65,29.08a5.64,5.64,0,0,0,8,8L37.05,9.63A5.65,5.65,0,0,0,37.05,1.65Z"/>
        </g>
      </g>
    </g>
  </g>
</svg>
