<svg id="Слой_1" data-name="Слой 1" xmlns="http://www.w3.org/2000/svg" xmlns:xlink="http://www.w3.org/1999/xlink" viewBox="0 0 112 38.5"><defs><style>.cls-1{fill:#fff}.cls-2{fill:url(#Безымянный_градиент_4)}.cls-3{fill:url(#Безымянный_градиент_2)}.cls-4{fill:url(#Безымянный_градиент_2-2)}.cls-5{fill:url(#Безымянный_градиент_2-3)}.cls-6{fill:url(#Безымянный_градиент_2-4)}.cls-7{fill:url(#Безымянный_градиент_2-5)}</style><linearGradient id="Безымянный_градиент_4" x1="40.88" y1="-90.69" x2="70.35" y2="-90.69" gradientTransform="rotate(-45 187.559 -12.75)" gradientUnits="userSpaceOnUse"><stop offset="0" stop-color="#001f38"/><stop offset=".05" stop-color="#071f3a"/><stop offset=".12" stop-color="#1c1e3e"/><stop offset=".21" stop-color="#3e1e46"/><stop offset=".31" stop-color="#6d1d51"/><stop offset=".43" stop-color="#a81b5f"/><stop offset=".45" stop-color="#b71b62"/><stop offset=".73" stop-color="#ff3e33"/><stop offset="1" stop-color="#ff910b"/></linearGradient><linearGradient id="Безымянный_градиент_2" x1="70.15" y1="-109.97" x2="40.35" y2="-109.97" gradientTransform="rotate(-45 187.559 -12.75)" gradientUnits="userSpaceOnUse"><stop offset="0" stop-color="#ff910b"/><stop offset=".27" stop-color="#ff3e33"/><stop offset=".55" stop-color="#b71b62"/><stop offset=".57" stop-color="#a81b5f"/><stop offset=".69" stop-color="#6d1d51"/><stop offset=".79" stop-color="#3e1e46"/><stop offset=".88" stop-color="#1c1e3e"/><stop offset=".95" stop-color="#071f3a"/><stop offset="1" stop-color="#001f38"/></linearGradient><linearGradient id="Безымянный_градиент_2-2" x1="70.16" y1="-109.86" x2="40.36" y2="-109.86" xlink:href="#Безымянный_градиент_2"/><linearGradient id="Безымянный_градиент_2-3" x1="70.13" y1="-109.91" x2="40.46" y2="-109.91" xlink:href="#Безымянный_градиент_2"/><linearGradient id="Безымянный_градиент_2-4" x1="29.24" y1="-119.47" x2="61.56" y2="-119.47" xlink:href="#Безымянный_градиент_2"/><linearGradient id="Безымянный_градиент_2-5" x1="29.12" y1="-100.25" x2="61.44" y2="-100.25" xlink:href="#Безымянный_градиент_2"/></defs><title>svg</title><path class="cls-1" d="M69.24 29.32a.68.68 0 0 1-.06 1 5.32 5.32 0 0 1-8.53-4.24 5 5 0 0 1 5.28-5.32 4.61 4.61 0 0 1 3 1 .68.68 0 0 1 .08 1l-.67.71a.65.65 0 0 1-.82.12 2.94 2.94 0 0 0-1.52-.47 2.81 2.81 0 0 0-2.86 3A2.72 2.72 0 0 0 65.93 29a3.12 3.12 0 0 0 1.76-.49.66.66 0 0 1 .83.07zm3.97-7.69a.25.25 0 0 0 .44.12 3 3 0 0 1 2.46-1 4 4 0 0 1 2.08.58.67.67 0 0 1 .22.87l-.51 1a.66.66 0 0 1-.9.28 2.5 2.5 0 0 0-1.21-.26 2.31 2.31 0 0 0-2.48 2.55v4.63a.67.67 0 0 1-.66.67h-1.14a.67.67 0 0 1-.66-.67v-8.66a.67.67 0 0 1 .66-.67h1a.67.67 0 0 1 .7.56zm16.85-.2l-5.83 13.73a.26.26 0 0 1-.24.16h-2.13a.26.26 0 0 1-.24-.37l1.65-3.89a.27.27 0 0 0 0-.2l-3.78-9.42a.26.26 0 0 1 .24-.36H82a.26.26 0 0 1 .25.18l1.45 4.17.71 2.13a.26.26 0 0 0 .49 0l.77-2.08 1.75-4.24a.26.26 0 0 1 .24-.16h2.15a.26.26 0 0 1 .25.35zm1.45 13.22V21.74a.67.67 0 0 1 .66-.67h1a.67.67 0 0 1 .66.59.35.35 0 0 0 .58.23 4.07 4.07 0 0 1 2.74-1 5 5 0 0 1 5.1 5.26c0 2.94-1.83 5.26-5 5.26a4.66 4.66 0 0 1-2.73-.81.35.35 0 0 0-.57.27v3.82a.67.67 0 0 1-.66.67h-1.12a.67.67 0 0 1-.66-.71zm8.32-8.55a2.82 2.82 0 1 0-5.64 0 2.82 2.82 0 1 0 5.64 0zm7.73-6.92v1.23a.67.67 0 0 0 .66.67h1.41a.67.67 0 0 1 .66.67v.8a.67.67 0 0 1-.66.67h-1.43a.67.67 0 0 0-.66.67v3.67c0 1 .52 1.43 1.29 1.43a2.41 2.41 0 0 0 .6-.08.66.66 0 0 1 .8.43l.27.84a.67.67 0 0 1-.45.86 5.42 5.42 0 0 1-1.38.2c-2.16.08-3.57-1.16-3.57-3.67V23.9a.67.67 0 0 0-.66-.67h-.52a.67.67 0 0 1-.66-.67v-.8a.67.67 0 0 1 .66-.67h.52a.67.67 0 0 0 .66-.67v-1.25a.67.67 0 0 1 .67-.67h1.13a.67.67 0 0 1 .66.68zM71.87 4.74a.37.37 0 0 0 .63.21 3 3 0 0 1 2.3-.79 3.9 3.9 0 0 1 2.32.75.38.38 0 0 1 .1.47l-.77 1.5a.37.37 0 0 1-.53.14 2.4 2.4 0 0 0-1.44-.4A2.31 2.31 0 0 0 72 9.18v4.92a.38.38 0 0 1-.37.38h-1.72a.38.38 0 0 1-.37-.38V4.8a.38.38 0 0 1 .37-.38h1.59a.37.37 0 0 1 .37.32zm14.92-.32h1.07a.67.67 0 0 1 .66.67v8.71a.67.67 0 0 1-.66.67h-1a.67.67 0 0 1-.66-.62.31.31 0 0 0-.54-.19 4.19 4.19 0 0 1-2.76 1.11c-2.94 0-5.12-1.81-5.12-5.34a4.86 4.86 0 0 1 5.18-5.26 3.88 3.88 0 0 1 2.73 1.06.28.28 0 0 0 .48-.19.67.67 0 0 1 .62-.62zm-6.59 5a2.86 2.86 0 0 0 2.94 3.06c3.87 0 3.87-6.1 0-6.1a2.85 2.85 0 0 0-2.94 3.06zm18.37 5.06a.67.67 0 0 1-.66-.67V9.22a2.39 2.39 0 0 0-2.31-2.69A2.64 2.64 0 0 0 93 9.21v4.59a.67.67 0 0 1-.66.67H91.2a.67.67 0 0 1-.66-.67V5.08a.67.67 0 0 1 .66-.67h.94a.67.67 0 0 1 .66.59.4.4 0 0 0 .65.27 4.14 4.14 0 0 1 2.71-1c2.34 0 4.21 1.77 4.21 4.94v4.61a.67.67 0 0 1-.66.67zm10.8-7.88a.66.66 0 0 1-.87.13 3.49 3.49 0 0 0-2-.53c-1.17 0-1.81.37-1.81 1s.58 1 1.85 1.1c1.87.12 4.25.55 4.25 3.22 0 1.77-1.43 3.3-4.27 3.3a5.86 5.86 0 0 1-4.17-1.38.68.68 0 0 1-.1-.89l.47-.69a.65.65 0 0 1 .91-.18 5.86 5.86 0 0 0 2.93 1c.93 0 1.79-.47 1.79-1.2s-.56-1-2-1.06c-1.87-.14-4.11-.84-4.11-3.12s2.38-3.14 4.19-3.14a5.49 5.49 0 0 1 3.28.86.68.68 0 0 1 .14 1zM65 2.6v1.23a.67.67 0 0 0 .66.67H67a.67.67 0 0 1 .66.67V6a.67.67 0 0 1-.66.67h-1.39a.67.67 0 0 0-.66.67V11c0 1 .52 1.43 1.29 1.43a2.41 2.41 0 0 0 .6-.08.66.66 0 0 1 .8.43l.27.84a.67.67 0 0 1-.45.86 5.42 5.42 0 0 1-1.38.2c-2.16.08-3.57-1.16-3.57-3.67V7.32a.67.67 0 0 0-.66-.67h-.52a.67.67 0 0 1-.68-.65v-.8a.67.67 0 0 1 .66-.67h.52a.67.67 0 0 0 .66-.67V2.59a.67.67 0 0 1 .67-.67h1.14a.67.67 0 0 1 .7.68z"/><path class="cls-2" d="M44.74 15L28.58 31.37a3.4 3.4 0 0 0 0 4.76 3.3 3.3 0 0 0 4.71 0l16.16-16.36a3.4 3.4 0 0 0 0-4.76 3.3 3.3 0 0 0-4.71-.01zm1.18 6l-2.48.44a.34.34 0 0 1-.39-.4l.43-2.51a.16.16 0 0 1 .31 0l.37 1.54a.34.34 0 0 0 .25.25l1.52.37a.16.16 0 0 1-.01.31zM48 16.85l-1 3.42a.34.34 0 0 1-.4.24l-2-.45a.34.34 0 0 1-.26-.26l-.45-2a.35.35 0 0 1 .24-.41l3.38-1a.34.34 0 0 1 .49.46z"/><path class="cls-3" d="M32.68 3.2l-.61.62a.21.21 0 0 0 0 .29l.64.65c.43.43.76.53 1.1.2s.15-.76-.17-1.09L33 3.2a.2.2 0 0 0-.32 0z"/><path class="cls-4" d="M31.35 4.54l-.73.74a.22.22 0 0 0 0 .3l.71.72c.39.39.8.62 1.22.2s.17-.87-.2-1.25l-.7-.71a.21.21 0 0 0-.3 0z"/><path class="cls-5" d="M33.59.34a3.29 3.29 0 0 0-2.35 1L15.07 17.69a3.4 3.4 0 0 0 0 4.76 3.3 3.3 0 0 0 4.71 0L35.94 6.09a3.4 3.4 0 0 0 0-4.76 3.29 3.29 0 0 0-2.35-.99zm.32 2a.22.22 0 0 1 0 .3l-.15.16a.22.22 0 0 0 0 .3.21.21 0 0 0 .3 0l.15-.16a.21.21 0 0 1 .3 0l.09.06a.22.22 0 0 1 0 .3l-.17.17a.22.22 0 0 0 0 .29 1.18 1.18 0 0 1 0 1.69 1 1 0 0 1-1.16.22 1.12 1.12 0 0 1-.18 1.43 1.34 1.34 0 0 1-2-.07.14.14 0 0 0-.2 0l-.2.21a.21.21 0 0 1-.3 0l-.07-.07a.22.22 0 0 1 0-.3l.15-.15a.22.22 0 0 0 0-.3.21.21 0 0 0-.3 0l-.17.11a.21.21 0 0 1-.3 0l-.07-.07a.22.22 0 0 1 0-.3l.18-.16a.22.22 0 0 0 0-.3l-.36-.37a.22.22 0 0 1 0-.3l.16-.17a.21.21 0 0 1 .3 0l2.3-2.33a.22.22 0 0 1 0-.3L32.4 2a.21.21 0 0 1 .3 0l.36.37a.21.21 0 0 0 .3 0l.15-.16a.21.21 0 0 1 .3 0z"/><path class="cls-6" d="M20.29.12a3.29 3.29 0 0 0-2.35 1L1.77 17.48a3.4 3.4 0 0 0 0 4.76 3.3 3.3 0 0 0 4.71 0L22.65 5.87a3.4 3.4 0 0 0 0-4.76 3.29 3.29 0 0 0-2.36-.99zM7.34 16a.23.23 0 0 1 0 .32l-.2.2a.18.18 0 0 0 0 .25l.09.1a.17.17 0 0 0 .25 0l.2-.21a.22.22 0 0 1 .32 0l.07.07a.23.23 0 0 1 0 .32l-.3.31a.23.23 0 0 0 0 .25 1.5 1.5 0 0 1-.19 1.57.22.22 0 0 1-.33 0l-.26-.26a.23.23 0 0 1 0-.3 1.07 1.07 0 0 0-.27-1.44c-.45-.45-.91-.52-1.23-.19s-.12.7.24 1.32c.52.9 1 1.57.27 2.25a1.25 1.25 0 0 1-1.42.28.22.22 0 0 0-.24.05l-.3.31a.22.22 0 0 1-.32 0l-.07-.07a.23.23 0 0 1 0-.32l.17-.17a.23.23 0 0 0 0-.32.22.22 0 0 0-.32 0l-.17.17a.22.22 0 0 1-.32 0l-.07-.07a.23.23 0 0 1 0-.32l.31-.31a.23.23 0 0 0 .05-.24 1.35 1.35 0 0 1 .17-1.31.22.22 0 0 1 .34 0l.19.16a.23.23 0 0 1 0 .28.9.9 0 0 0 .24 1.17c.4.4.81.47 1.09.17s.13-.55-.34-1.36-.92-1.49-.2-2.22a1.34 1.34 0 0 1 1.64-.24.22.22 0 0 0 .25 0l.27-.28a.22.22 0 0 1 .32 0z"/><path class="cls-7" d="M33.8 13.79a3.29 3.29 0 0 0-2.35 1L15.28 31.16a3.4 3.4 0 0 0 0 4.76 3.3 3.3 0 0 0 4.71 0l16.17-16.37a3.4 3.4 0 0 0 0-4.76 3.29 3.29 0 0 0-2.36-1zM20.14 33.06a.22.22 0 0 0 0 .26l.19.2a.23.23 0 0 1 0 .32l-.07.07a.22.22 0 0 1-.31 0l-.09-.09a.22.22 0 0 0-.31 0 .23.23 0 0 0 0 .32l.09.09a.23.23 0 0 1 0 .32l-.07.07a.22.22 0 0 1-.31 0l-.2-.2a.22.22 0 0 0-.25 0 2.05 2.05 0 0 1-2.5-.4 2.12 2.12 0 0 1-.61-1.15.24.24 0 0 1 .28-.27l.27.06a.24.24 0 0 1 .18.2 1.23 1.23 0 0 0 .36.68 1.2 1.2 0 0 0 1.21.34.22.22 0 0 0 .1-.37l-.51-.52a.23.23 0 0 1 0-.32l.07-.07a.22.22 0 0 1 .31 0l.68.69a.22.22 0 0 0 .31 0 .23.23 0 0 0 0-.31l-.68-.69a.23.23 0 0 1 0-.32l.07-.07a.22.22 0 0 1 .31 0l.52.52a.22.22 0 0 0 .37-.1 1.22 1.22 0 0 0-.29-1.32 1.12 1.12 0 0 0-.68-.36.22.22 0 0 1-.19-.18l-.06-.3a.22.22 0 0 1 .24-.27 2 2 0 0 1 1.19.62 2.06 2.06 0 0 1 .38 2.55z"/></svg>