<?xml version="1.0" encoding="utf-8"?>
<!-- Generator: Adobe Illustrator 22.0.1, SVG Export Plug-In . SVG Version: 6.00 Build 0)  -->
<svg version="1.1" id="Слой_1" xmlns="http://www.w3.org/2000/svg" xmlns:xlink="http://www.w3.org/1999/xlink" x="0px" y="0px"
	 viewBox="0 0 140 24" style="enable-background:new 0 0 140 24;" xml:space="preserve">
<style type="text/css">
	.st0{fill:#FFFFFF;}
</style>
<g>
	<g>
		<g>
			<path class="st0" d="M99.9412537,14.8623104c0.2770767,0.2703314,0.2467499,0.7228413-0.0594788,0.9596443
				c-0.9329605,0.7214565-1.9281616,1.0153465-3.0969696,1.0153465c-2.7444382,0-5.0283356-1.6505318-5.0283356-5.0091143
				s2.2838974-5.0091143,5.0283356-5.0091143c1.115799,0,2.019783,0.2647505,2.8877945,0.9372244
				c0.2976685,0.2306151,0.3338242,0.6683483,0.0743942,0.9412737l-0.6366959,0.6698151
				c-0.2022324,0.2127523-0.53022,0.268404-0.7777176,0.1105871c-0.4723282-0.3011808-1.0024643-0.4517384-1.5094757-0.4517384
				c-1.5736618,0-2.7252197,1.1514196-2.7252197,2.8019524c0,1.8040009,1.2282867,2.7636547,2.6869202,2.7636547
				c0.5879669,0,1.1758499-0.1302624,1.6800919-0.4651651c0.2497101-0.1658535,0.5800476-0.1388626,0.7946091,0.0704823
				L99.9412537,14.8623104z"/>
			<path class="st0" d="M103.7206116,7.6219358v0.000001c0.0315857,0.1999531,0.2810287,0.2694669,0.4147949,0.1175294
				c0.6816406-0.77422,1.5185013-0.901176,2.3413391-0.901176c0.7386627,0,1.4555206,0.2186165,1.9855042,0.5486283
				c0.2741165,0.1706891,0.3592224,0.5318956,0.210495,0.8185229l-0.4866562,0.9378681
				c-0.1624451,0.313056-0.5465698,0.4273996-0.8598175,0.2653189c-0.3165894-0.1638117-0.6714554-0.2481441-1.156601-0.2481441
				c-1.2282944,0-2.3606339,0.6525812-2.3606339,2.399065v4.356905c0,0.3495922-0.2833939,0.6329918-0.632988,0.6329918h-1.0754242
				c-0.3495941,0-0.6329956-0.2833996-0.6329956-0.6329918V7.7207026c0-0.3495922,0.2834015-0.6329927,0.6329956-0.6329927
				h0.9947433C103.4068298,7.0877099,103.6720123,7.3142881,103.7206116,7.6219358z"/>
			<path class="st0" d="M119.7802734,7.4354472l-5.5621262,12.9168758c-0.03936,0.0914116-0.1293411,0.1506329-0.2288666,0.1506329
				h-2.0293732c-0.1790161,0-0.2996292-0.1831436-0.2289276-0.3476048l1.575119-3.6636829
				c0.0263214-0.0612259,0.0270233-0.1304474,0.0019379-0.192194l-3.6023178-8.8688068
				c-0.0665588-0.1638546,0.0540085-0.342958,0.2308655-0.342958h2.1786118c0.1057129,0,0.1999283,0.0667076,0.2350388,0.1664238
				l1.3808136,3.921473l0.6780777,2.0054512c0.0750427,0.2219505,0.3871155,0.2270546,0.4693756,0.0076771l0.7332764-1.9554758
				l1.6635132-3.992209c0.0386887-0.0928555,0.1294174-0.1533403,0.230011-0.1533403h2.0461044
				C119.730484,7.0877099,119.8511047,7.2709703,119.7802734,7.4354472z"/>
			<path class="st0" d="M121.1584396,19.8699627V7.7207026c0-0.3495922,0.2834015-0.6329927,0.6329956-0.6329927h0.991951
				c0.3209686,0,0.5911331,0.2402349,0.6286545,0.5590067V7.646718c0.0313187,0.2661071,0.3534927,0.3958683,0.5502167,0.2139535
				c0.7354202-0.680048,1.7351532-0.9840822,2.6083221-0.9840822c2.9171219,0,4.8555069,2.1687264,4.8555069,4.9515977
				c0,2.7636547-1.7464752,4.9515982-4.7787704,4.9515982c-0.7786026,0-1.8493271-0.1869183-2.6013794-0.7612877
				c-0.2242889-0.1712961-0.5460815-0.0241985-0.5460815,0.2580223v3.5934429c0,0.3495922-0.2834015,0.6329937-0.6329956,0.6329937
				h-1.0754242C121.4418411,20.5029564,121.1584396,20.2195549,121.1584396,19.8699627z M129.0846863,11.828187
				c0-1.4777107-0.9979553-2.6869202-2.6869278-2.6869202c-1.6888275,0-2.6867828,1.2092094-2.6867828,2.6869202
				c0,1.4778471,1.0939026,2.6869202,2.6867828,2.6869202C127.9907761,14.5151072,129.0846863,13.3060341,129.0846863,11.828187z"/>
			<path class="st0" d="M136.4545593,5.3143311v1.1597042c0,0.3495369,0.2833557,0.6328926,0.6328888,0.6328926h1.3444061
				c0.3495331,0,0.6328888,0.2833552,0.6328888,0.6328921v0.7494731c0,0.3495369-0.2833557,0.6328926-0.6328888,0.6328926
				h-1.3636169c-0.3495331,0-0.6328888,0.2833557-0.6328888,0.6328926v3.4550037
				c0,0.9020004,0.4990997,1.3434601,1.2282867,1.3434601c0.1823578,0,0.3791046-0.0287924,0.5734253-0.0791874
				c0.323349-0.0838547,0.6569824,0.0911646,0.760788,0.4086685l0.2571716,0.786624
				c0.1113892,0.3406887-0.081604,0.7080078-0.4266357,0.8051128c-0.4246826,0.119524-0.8360748,0.1768074-1.318222,0.1898556
				c-2.0535583,0.0767345-3.3970184-1.0939035-3.3970184-3.4545336V9.7550783c0-0.3495369-0.2833557-0.6328926-0.6328888-0.6328926
				h-0.4999237c-0.3495331,0-0.6328888-0.2833557-0.6328888-0.6328926V7.73982c0-0.3495369,0.2833557-0.6328921,0.6328888-0.6328921
				h0.4999237c0.3495331,0,0.6328888-0.2833557,0.6328888-0.6328926V5.3068647c0-0.3512535,0.2860413-0.6353154,0.6372833-0.6328773
				l1.0756378,0.0074663C136.1738739,4.6838679,136.4545593,4.9665084,136.4545593,5.3143311z"/>
		</g>
		<g>
			<path class="st0" d="M53.3097153,7.3096142l0.0000038,0.0000014c0.0452766,0.286624,0.3934479,0.396719,0.6014938,0.1944318
				c0.6524696-0.6344047,1.4281044-0.7437272,2.191658-0.7437272c0.8505936,0,1.6722565,0.289885,2.2129745,0.705935
				c0.1357994,0.1044879,0.1741829,0.2928224,0.0952644,0.4449105l-0.7335358,1.4136567
				c-0.0958748,0.1847715-0.3315582,0.250803-0.5050659,0.1357899c-0.3756447-0.2490015-0.7764587-0.3780975-1.376709-0.3780975
				c-1.2282906,0-2.36063,0.6525803-2.36063,2.399065v4.6345816c0,0.1962357-0.1590805,0.3553162-0.3553162,0.3553162H51.44907
				c-0.1962318,0-0.3553123-0.1590805-0.3553123-0.3553162V7.3650546c0-0.1962347,0.1590805-0.3553143,0.3553123-0.3553143
				h1.5096855C53.1335869,7.0097404,53.2824364,7.1369243,53.3097153,7.3096142z"/>
			<path class="st0" d="M67.52388,7.0097404h1.0156021c0.3495941,0,0.632988,0.2834005,0.632988,0.6329927v8.1957512
				c0,0.3495922-0.2833939,0.6329937-0.632988,0.6329937h-0.9916077c-0.3292084,0-0.6034622-0.252346-0.630806-0.5804157v-0.0000019
				c-0.0213852-0.2566042-0.3309708-0.3631582-0.5124283-0.1804609c-0.6887817,0.6935015-1.7892532,1.0335169-2.6250877,1.0487337
				c-2.8020897,0.0192165-4.8747292-1.7080498-4.8747292-5.0283327c0-3.2626305,2.1685905-4.9706798,4.9322433-4.9514618
				c1.0065079,0,1.9766159,0.3756065,2.6023102,1.0016985c0.1620102,0.162118,0.4391556,0.0531478,0.4526062-0.1756535V7.6055818
				C66.9116516,7.2709975,67.1887207,7.0097404,67.52388,7.0097404z M61.2462349,11.7309999
				c0,1.8041372,1.247509,2.8788233,2.8019524,2.8788233c3.6848755,0,3.6848755-5.7384291,0-5.7384291
				C62.4937439,8.8713942,61.2462349,9.9269991,61.2462349,11.7309999z"/>
			<path class="st0" d="M78.7490082,16.4714775c-0.3495941,0-0.6329956-0.2834015-0.6329956-0.6329937v-4.3186054
				c0-1.4121323-0.7572861-2.4917288-2.1994171-2.5321379c-1.3857574-0.0388298-2.5026169,1.1417332-2.5026169,2.5280342
				l-0.0000076,4.3227091c0,0.3495922-0.2833939,0.6329937-0.632988,0.6329937h-1.0562134
				c-0.3495865,0-0.632988-0.2834015-0.632988-0.6329937V7.6236515c0-0.3495922,0.2834015-0.6329927,0.632988-0.6329927h0.8970718
				c0.3205719,0,0.590538,0.2396584,0.6285248,0.5579743v0.000001c0.0353546,0.2961602,0.3827591,0.4431095,0.6160126,0.257225
				c0.7900314-0.6295934,1.6081619-0.9495869,2.5800247-0.9495869c2.2262421,0,4.0111618,1.6697497,4.0111618,4.6445251v4.3376865
				c0,0.3495922-0.2834015,0.6329937-0.6329956,0.6329937H78.7490082z"/>
			<path class="st0" d="M89.0455475,9.0616455c-0.2066269,0.2430954-0.5611191,0.2921295-0.8283157,0.1177835
				c-0.5640488-0.3680429-1.1931229-0.499939-1.9060669-0.499939c-1.113121,0-1.727272,0.3455086-1.727272,0.9404364
				c0,0.6141453,0.5564957,0.9596529,1.7657089,1.0363874c1.7847824,0.1151686,4.0494614,0.5181932,4.0494614,3.0322914
				c0,1.6697502-1.3626785,3.1091623-4.0686798,3.1091623c-1.3511276,0-2.7021484-0.2032738-3.9684906-1.3010693
				c-0.2412338-0.2091284-0.2809982-0.5709848-0.0997467-0.8338089l0.4468689-0.6479883
				c0.1954041-0.2833443,0.5858841-0.3656702,0.8685532-0.1692896c0.7707214,0.535449,1.937767,0.9022789,2.7911148,0.9178162
				c0.8829193,0.0190811,1.7081833-0.4414597,1.7081833-1.1323395c0-0.6525803-0.5374146-0.9212179-1.8808746-0.9979515
				c-1.7847824-0.134387-3.9152069-0.7869682-3.9152069-2.9364767c0-2.1878076,2.264679-2.9555573,3.9919434-2.9555573
				c1.2254105,0,2.2000504,0.1979146,3.120903,0.8126311c0.3162155,0.2110891,0.3801422,0.6511459,0.1339188,0.940836
				L89.0455475,9.0616455z"/>
			<path class="st0" d="M46.7295647,5.291626v1.1597042c0,0.3495369,0.2833557,0.6328926,0.6328926,0.6328926h1.3444023
				c0.3495369,0,0.6328926,0.2833557,0.6328926,0.6328926V8.466588c0,0.3495369-0.2833557,0.6328926-0.6328926,0.6328926h-1.3636169
				c-0.3495369,0-0.6328926,0.2833557-0.6328926,0.6328926v3.4550037c0,0.9020004,0.4991112,1.3434601,1.2282906,1.3434601
				c0.1823616,0,0.3791046-0.0287924,0.5734253-0.0791874c0.3233452-0.0838547,0.6569824,0.0911655,0.760788,0.4086685
				l0.2571754,0.786624c0.1113853,0.3406878-0.0816002,0.7080078-0.4266319,0.8051128
				c-0.4246864,0.119524-0.8360825,0.1768074-1.3182259,0.1898556c-2.0535583,0.0767345-3.3970184-1.0939035-3.3970184-3.4545336
				V9.7323732c0-0.3495369-0.2833557-0.6328926-0.6328926-0.6328926h-0.4999161
				c-0.3495369,0-0.6328926-0.2833557-0.6328926-0.6328926V7.7171154c0-0.3495369,0.2833557-0.6328926,0.6328926-0.6328926
				h0.4999161c0.3495369,0,0.6328926-0.2833557,0.6328926-0.6328926V5.2841597c0-0.3512535,0.2860413-0.6353154,0.6372871-0.6328773
				l1.0756264,0.0074663C46.4488792,4.6611633,46.7295647,4.9438033,46.7295647,5.291626z"/>
		</g>
	</g>
	<g>
		<path class="st0" d="M23.0786781,0.7829635c-0.4127007-0.4126717-0.9614239-0.6399733-1.5450726-0.6399733
			c-0.583622,0-1.1323185,0.2273016-1.5450172,0.6399592L9.3718004,11.3996944
			c-0.8518877,0.8519154-0.8518877,2.2380924,0.0000553,3.0901051c0.42593,0.4259434,0.9855022,0.6388941,1.5450172,0.6388941
			c0.559516,0,1.1190882-0.2129364,1.5450182-0.6388941l10.616787-10.6167736
			C23.9305935,3.021069,23.9305935,1.6348925,23.0786781,0.7829635z"/>
		<path class="st0" d="M31.9499283,9.6541853c-0.8519154-0.8518448-2.2381191-0.8518448-3.0900898,0L18.2431068,20.2709599
			c-0.8519154,0.8519287-0.8519154,2.2381477,0,3.0901184C18.6691208,23.7870064,19.2286644,24,19.7881794,24
			c0.5595169,0,1.1190319-0.2129784,1.5450172-0.638937L31.949873,12.7443047
			c0.4127254-0.412714,0.6400166-0.9613962,0.6400166-1.5450459C32.5898895,10.6156244,32.3625984,10.0668993,31.9499283,9.6541853z
			"/>
		<path class="st0" d="M23.2216263,9.5112934c-0.4127007-0.4127131-0.9613972-0.6400013-1.5450459-0.6400146
			c-0.5836487,0.0000134-1.1323452,0.2273016-1.5450726,0.6399727L9.5102634,20.1325512
			c-0.4126997,0.412714-0.6400156,0.9613972-0.6400156,1.5450325c0,0.5836487,0.2273159,1.1323738,0.6399593,1.5450859
			c0.4126997,0.4126587,0.9614248,0.6399593,1.5450735,0.6399593s1.1323175-0.2273006,1.5450459-0.6399593l10.6212997-10.6212997
			c0.412672-0.4127274,0.6399593-0.9614382,0.6399593-1.5450869S23.6342983,9.9239655,23.2216263,9.5112934z"/>
		<path class="st0" d="M14.3503761,0.6399593C13.9376764,0.2272876,13.3889236,0,12.8053026,0
			c-0.5836773,0-1.1323175,0.2273016-1.5450172,0.6399593L0.6389292,11.261301
			c-0.8518869,0.8519716-0.8519149,2.238162-0.000028,3.0900774c0.4259855,0.4259434,0.9855575,0.638936,1.5450733,0.638936
			c0.5595438,0,1.1190879-0.2129927,1.5450733-0.638936L14.3503761,3.730078
			C15.2022905,2.8781068,15.2022905,1.4919302,14.3503761,0.6399593z"/>
	</g>
</g>
</svg>
