<svg xmlns="http://www.w3.org/2000/svg" width="16" height="14.75" viewBox="0 0 16 14.75">
  <title>icons</title>
  <g>
    <path d="M13.47313,14.68687H2.52687A2.492,2.492,0,0,1,.346,13.42868a2.46057,2.46057,0,0,1,0-2.51638h0L5.81913,1.47586A2.53588,2.53588,0,0,1,8,.21767a2.492,2.492,0,0,1,2.18087,1.25819L15.654,10.9123a2.51638,2.51638,0,0,1-2.18087,3.77457ZM1.79292,11.75109a.81892.81892,0,0,0,0,.8388.85123.85123,0,0,0,.734.41939H13.47313a.85123.85123,0,0,0,.734-.41939.81892.81892,0,0,0,0-.8388L8.734,2.31466A.8269.8269,0,0,0,8,1.89526a.84744.84744,0,0,0-.73394.4194Z"/>
    <path d="M8,12.17049a.84126.84126,0,0,1-.83879-.8388V7.34742a.83879.83879,0,0,1,1.67758,0v3.98427A.84126.84126,0,0,1,8,12.17049Z"/>
    <circle cx="8" cy="4.83104" r="0.83879"/>
  </g>
</svg>
