<svg xmlns="http://www.w3.org/2000/svg" xmlns:xlink="http://www.w3.org/1999/xlink" width="30" height="1178.66667" viewBox="0 0 30 1178.66667">
  <defs>
    <style>
      .a {
        fill: #ff9200;
      }

      .b {
        fill: #b71b62;
      }

      .c {
        fill: #c1c1c1;
      }

      .d {
        fill: url(#a);
      }

      .e {
        fill: url(#b);
      }
    </style>
    <linearGradient id="a" data-name="Безымянный градиент 8" x1="1168.83766" y1="7365.06323" x2="1257.9416" y2="7365.06323" gradientTransform="translate(7375.80386 -1144.1395) rotate(90)" gradientUnits="userSpaceOnUse">
      <stop offset="0" stop-color="#ff9100"/>
      <stop offset="0.3235" stop-color="#ff3c2f"/>
      <stop offset="0.66932" stop-color="#d51464"/>
      <stop offset="0.75131" stop-color="#b60d5f"/>
      <stop offset="0.85574" stop-color="#940659"/>
      <stop offset="0.94241" stop-color="#7f0255"/>
      <stop offset="1" stop-color="#780054"/>
    </linearGradient>
    <linearGradient id="b" x1="2566.81651" y1="-5513.37471" x2="2655.92069" y2="-5513.37471" gradientTransform="translate(5524.11534 2796.41788) rotate(-90)" xlink:href="#a"/>
  </defs>
  <title>icons</title>
  <g>
    <circle class="a" cx="10.74063" cy="241.90615" r="10.96777"/>
    <circle class="b" cx="10.74063" cy="126.43696" r="10.96777"/>
    <circle class="a" cx="10.74063" cy="10.96777" r="10.96777"/>
    <path class="c" d="M21.7084,588.37558a10.96777,10.96777,0,1,0-10.96777,10.96778A10.9678,10.9678,0,0,0,21.7084,588.37558Zm-16.44792,0a5.48014,5.48014,0,1,1,5.48015,5.48015A5.48017,5.48017,0,0,1,5.26048,588.37558Z"/>
    <path class="c" d="M21.7084,703.66473A10.96777,10.96777,0,1,0,10.74063,714.6325,10.9678,10.9678,0,0,0,21.7084,703.66473Zm-16.44792,0a5.48014,5.48014,0,1,1,5.48015,5.48015A5.48017,5.48017,0,0,1,5.26048,703.66473Z"/>
    <path class="c" d="M21.7084,819.464a10.96777,10.96777,0,1,0-10.96777,10.96777A10.9678,10.9678,0,0,0,21.7084,819.464Zm-16.44792,0a5.48014,5.48014,0,1,1,5.48015,5.48015A5.48017,5.48017,0,0,1,5.26048,819.464Z"/>
    <path class="c" d="M21.7084,934.75314a10.96777,10.96777,0,1,0-10.96777,10.96777A10.9678,10.9678,0,0,0,21.7084,934.75314Zm-16.44792,0a5.48014,5.48014,0,1,1,5.48015,5.48015A5.48017,5.48017,0,0,1,5.26048,934.75314Z"/>
    <path class="c" d="M21.7084,1050.04228a10.96777,10.96777,0,1,0-10.96777,10.96778A10.9678,10.9678,0,0,0,21.7084,1050.04228Zm-16.44792,0a5.48014,5.48014,0,1,1,5.48015,5.48015A5.48017,5.48017,0,0,1,5.26048,1050.04228Z"/>
    <path class="c" d="M21.7084,1165.84156a10.96777,10.96777,0,1,0-10.96777,10.96777A10.9678,10.9678,0,0,0,21.7084,1165.84156Zm-16.44792,0a5.48014,5.48014,0,1,1,5.48015,5.48015A5.48017,5.48017,0,0,1,5.26048,1165.84156Z"/>
    <path class="d" d="M10.74063,113.8021a1.44638,1.44638,0,0,1-1.4462-1.4462V26.14411a1.4462,1.4462,0,0,1,2.89239,0V112.3559A1.44638,1.44638,0,0,1,10.74063,113.8021Z"/>
    <path class="e" d="M10.74063,229.60137a1.44638,1.44638,0,0,1-1.4462-1.4462V141.94338a1.4462,1.4462,0,1,1,2.89239,0v86.21179A1.44638,1.44638,0,0,1,10.74063,229.60137Z"/>
    <path class="c" d="M10.74063,344.38038a1.44638,1.44638,0,0,1-1.4462-1.44619v-86.2118a1.4462,1.4462,0,0,1,2.89239,0v86.2118A1.44637,1.44637,0,0,1,10.74063,344.38038Z"/>
    <path class="c" d="M10.74063,460.17965a1.44638,1.44638,0,0,1-1.4462-1.44619V372.52167a1.4462,1.4462,0,1,1,2.89239,0v86.21179A1.44637,1.44637,0,0,1,10.74063,460.17965Z"/>
    <path class="c" d="M10.74063,574.95867a1.44638,1.44638,0,0,1-1.4462-1.4462V487.30068a1.4462,1.4462,0,1,1,2.89239,0v86.21179A1.44638,1.44638,0,0,1,10.74063,574.95867Z"/>
    <path class="c" d="M10.74063,691.26807a1.44638,1.44638,0,0,1-1.4462-1.4462V603.61008a1.4462,1.4462,0,1,1,2.89239,0v86.21179A1.44638,1.44638,0,0,1,10.74063,691.26807Z"/>
    <path class="c" d="M10.74063,806.55721a1.44638,1.44638,0,0,1-1.4462-1.44619v-86.2118a1.4462,1.4462,0,0,1,2.89239,0V805.111A1.44637,1.44637,0,0,1,10.74063,806.55721Z"/>
    <path class="c" d="M10.74063,922.35648a1.44638,1.44638,0,0,1-1.4462-1.44619V834.6985a1.4462,1.4462,0,1,1,2.89239,0v86.21179A1.44637,1.44637,0,0,1,10.74063,922.35648Z"/>
    <path class="c" d="M10.74063,1036.62537a1.44638,1.44638,0,0,1-1.4462-1.4462V948.96738a1.4462,1.4462,0,1,1,2.89239,0v86.21179A1.44638,1.44638,0,0,1,10.74063,1036.62537Z"/>
    <path class="c" d="M10.74063,1152.42464a1.44638,1.44638,0,0,1-1.4462-1.44619V1123.026a1.4462,1.4462,0,1,1,2.89239,0v27.95248A1.44637,1.44637,0,0,1,10.74063,1152.42464Z"/>
    <path class="c" d="M21.7084,357.28717a10.96777,10.96777,0,1,0-10.96777,10.96777A10.9678,10.9678,0,0,0,21.7084,357.28717Zm-16.44792,0a5.48014,5.48014,0,1,1,5.48015,5.48015A5.48017,5.48017,0,0,1,5.26048,357.28717Z"/>
    <path class="c" d="M21.7084,473.08644a10.96777,10.96777,0,1,0-10.96777,10.96777A10.9678,10.9678,0,0,0,21.7084,473.08644Zm-16.44792,0a5.48014,5.48014,0,1,1,5.48015,5.48015A5.48017,5.48017,0,0,1,5.26048,473.08644Z"/>
    <path class="c" d="M27.85684,1129.85229l-15.89072-8.00949a1.78322,1.78322,0,0,0-2.58584,1.59238v17.829a1.78322,1.78322,0,0,0,2.58584,1.59238l15.96331-8.04612a2.75763,2.75763,0,0,0,.97627-4.10038A2.89048,2.89048,0,0,0,27.85684,1129.85229ZM13.25662,1133.324a.704.704,0,0,1-.498-1.202l3.42356-3.42358a.70431.70431,0,0,1,.996.996h0l-3.42356,3.42358A.70223.70223,0,0,1,13.25662,1133.324Zm2.3099-1.16433,3.4221-3.4221a.70431.70431,0,0,1,.99606.996h0l-3.42212,3.4221a.70431.70431,0,0,1-.996-.996Zm.53568,4.01024a.70431.70431,0,0,1-.498-1.20236l3.42357-3.42358a.70431.70431,0,0,1,.996.996l-3.42356,3.42354a.69974.69974,0,0,1-.498.20636Zm6.728-3.59073-3.42207,3.4221a.70431.70431,0,0,1-.996-.996l3.42209-3.42209a.7043.7043,0,1,1,.996.996Z"/>
    <path class="c" d="M10.74063,1114.26959a1.44638,1.44638,0,0,1-1.4462-1.4462v-49.48251a1.4462,1.4462,0,0,1,2.89239,0v49.48251A1.44638,1.44638,0,0,1,10.74063,1114.26959Z"/>
  </g>
</svg>
