<svg xmlns="http://www.w3.org/2000/svg" xmlns:xlink="http://www.w3.org/1999/xlink" width="863" height="455" viewBox="0 0 863 455">
  <defs>
    <style>
      .a {
        fill: #c1c1c1;
      }

      .b {
        fill: url(#a);
      }

      .c {
        fill: url(#b);
      }

      .d {
        fill: #ff9200;
      }

      .e {
        fill: #780054;
      }
    </style>
    <linearGradient id="a" data-name="Безымянный градиент 9" x1="369.4233" y1="7.8757" x2="646.94493" y2="7.8757" gradientUnits="userSpaceOnUse">
      <stop offset="0" stop-color="#780054"/>
      <stop offset="0.05759" stop-color="#7f0255"/>
      <stop offset="0.14426" stop-color="#940659"/>
      <stop offset="0.24869" stop-color="#b60d5f"/>
      <stop offset="0.33068" stop-color="#d51464"/>
      <stop offset="0.6765" stop-color="#ff3c2f"/>
      <stop offset="1" stop-color="#ff9100"/>
    </linearGradient>
    <linearGradient id="b" data-name="Безымянный градиент 8" x1="93.41505" y1="7.78938" x2="351.02893" y2="7.78938" gradientUnits="userSpaceOnUse">
      <stop offset="0" stop-color="#ff9100"/>
      <stop offset="0.3235" stop-color="#ff3c2f"/>
      <stop offset="0.66932" stop-color="#d51464"/>
      <stop offset="0.75131" stop-color="#b60d5f"/>
      <stop offset="0.85574" stop-color="#940659"/>
      <stop offset="0.94241" stop-color="#7f0255"/>
      <stop offset="1" stop-color="#780054"/>
    </linearGradient>
  </defs>
  <title>icons</title>
  <g>
    <path class="a" d="M374.07717,416.81576l-13.18592-6.64617a1.4797,1.4797,0,0,0-2.1457,1.32133v14.79425a1.47969,1.47969,0,0,0,2.1457,1.32133l13.24615-6.67656a2.28823,2.28823,0,0,0,.8101-3.40244A2.39849,2.39849,0,0,0,374.07717,416.81576Zm-12.11508,2.88074a.58414.58414,0,0,1-.41324-.99738l2.84083-2.84084a.58442.58442,0,0,1,.8265.8265h0l-2.84082,2.84084A.58273.58273,0,0,1,361.96209,419.6965Zm1.91673-.96615,2.83961-2.83961a.58443.58443,0,0,1,.82652.8265h0l-2.83963,2.83962a.58443.58443,0,0,1-.8265-.82651Zm.4445,3.32765a.58443.58443,0,0,1-.41324-.9977l2.84083-2.84085a.58443.58443,0,0,1,.82651.82651l-2.84083,2.84081a.58065.58065,0,0,1-.41325.17123Zm5.58281-2.97954-2.8396,2.83961a.58442.58442,0,0,1-.8265-.8265l2.83961-2.83961a.58442.58442,0,1,1,.82649.8265Z"/>
    <path class="a" d="M665.84868,7.81829a9.69124,9.69124,0,0,1-.56984,3.27958l120.36334.03633a64.87051,64.87051,0,0,1,.001,129.741L665.22593,140.839a9.72556,9.72556,0,0,1,.17238,6.34953l120.24387.03612a71.22,71.22,0,0,0,.001-142.44L665.34994,4.74845A9.69194,9.69194,0,0,1,665.84868,7.81829Z"/>
    <path class="a" d="M646.41622,302.99858a9.72465,9.72465,0,0,1,.14592-6.34948h-277.631a9.72465,9.72465,0,0,1,.14592,6.34948Z"/>
    <path class="a" d="M350.5305,302.99858a9.72457,9.72457,0,0,1,.14593-6.34948H92.9405a9.72465,9.72465,0,0,1,.14592,6.34948Z"/>
    <path class="a" d="M646.48794,450.09484a9.69926,9.69926,0,0,1,0-6.34948H369.00538a9.69926,9.69926,0,0,1,0,6.34948Z"/>
    <path class="a" d="M646.82536,147.183a9.72662,9.72662,0,0,1,.17651-6.34943l-277.69679-.0834a9.71335,9.71335,0,0,1,.2348,6.34948Z"/>
    <path class="a" d="M786.27713,296.6491H664.81689a9.72465,9.72465,0,0,1,.14592,6.34948H786.27713a70.37339,70.37339,0,0,1,0,140.74678h-121.386a9.69926,9.69926,0,0,1,0,6.34948h121.386a76.72287,76.72287,0,0,0,0-153.44574Z"/>
    <path class="a" d="M74.07725,300.03549a9.68028,9.68028,0,0,1,.7168-3.66067,74.816,74.816,0,0,1,.18478-149.104,9.7201,9.7201,0,0,1,.12443-6.381,81.167,81.167,0,0,0-.64694,161.82934A9.70893,9.70893,0,0,1,74.07725,300.03549Z"/>
    <path class="a" d="M93.28174,140.66718a9.69986,9.69986,0,0,1,.291,6.34959l257.34.0773a9.71156,9.71156,0,0,1,.23852-6.34938Z"/>
    <path class="b" d="M369.43384,4.65905a9.69762,9.69762,0,0,1-.01054,6.34948l277.52163.08381a9.70827,9.70827,0,0,1-.06728-6.34947Z"/>
    <path class="c" d="M93.415,4.57576a9.70378,9.70378,0,0,1,.04589,6.34948l257.568.07776a9.69842,9.69842,0,0,1-.00671-6.34948Z"/>
    <circle class="d" cx="83.17817" cy="7.74781" r="7.61937"/>
    <path class="a" d="M656.32446,151.95167a7.61938,7.61938,0,1,1,7.61938-7.61938A7.62794,7.62794,0,0,1,656.32446,151.95167Zm0-12.1288a4.50943,4.50943,0,1,0,4.50943,4.50942A4.51461,4.51461,0,0,0,656.32446,139.82287Z"/>
    <circle class="e" cx="360.01545" cy="7.74781" r="7.61937"/>
    <circle class="d" cx="656.32446" cy="7.74781" r="7.61937"/>
    <path class="a" d="M360.01545,151.95167a7.61938,7.61938,0,1,1,7.61938-7.61938A7.62793,7.62793,0,0,1,360.01545,151.95167Zm0-12.1288a4.50943,4.50943,0,1,0,4.50943,4.50942A4.51462,4.51462,0,0,0,360.01545,139.82287Z"/>
    <path class="a" d="M84.02477,151.95167a7.61938,7.61938,0,1,1,7.61937-7.61938A7.62793,7.62793,0,0,1,84.02477,151.95167Zm0-12.1288a4.50943,4.50943,0,1,0,4.50943,4.50942A4.51462,4.51462,0,0,0,84.02477,139.82287Z"/>
    <path class="a" d="M83.60147,307.30225a7.61938,7.61938,0,1,1,7.61938-7.61937A7.62793,7.62793,0,0,1,83.60147,307.30225Zm0-12.1288a4.50943,4.50943,0,1,0,4.50943,4.50943A4.51462,4.51462,0,0,0,83.60147,295.17345Z"/>
    <path class="a" d="M360.01545,307.72555a7.61938,7.61938,0,1,1,7.61938-7.61938A7.62793,7.62793,0,0,1,360.01545,307.72555Zm0-12.1288a4.50943,4.50943,0,1,0,4.50943,4.50942A4.51462,4.51462,0,0,0,360.01545,295.59675Z"/>
    <path class="a" d="M656.32446,307.30225a7.61938,7.61938,0,1,1,7.61938-7.61937A7.62793,7.62793,0,0,1,656.32446,307.30225Zm0-12.1288a4.50943,4.50943,0,1,0,4.50943,4.50943A4.51462,4.51462,0,0,0,656.32446,295.17345Z"/>
    <path class="a" d="M655.90116,454.61016a7.61938,7.61938,0,1,1,7.61938-7.61938A7.62794,7.62794,0,0,1,655.90116,454.61016Zm0-12.1288a4.50943,4.50943,0,1,0,4.50943,4.50942A4.51461,4.51461,0,0,0,655.90116,442.48136Z"/>
    <path class="a" d="M360.05956,454.61016a7.61938,7.61938,0,1,1,7.61938-7.61938A7.62794,7.62794,0,0,1,360.05956,454.61016Zm0-12.1288a4.50943,4.50943,0,1,0,4.50943,4.50942A4.51461,4.51461,0,0,0,360.05956,442.48136Z"/>
    <rect class="a" x="358.74555" y="428.92991" width="2.11649" height="9.31257" rx="1.05825" ry="1.05825"/>
  </g>
</svg>
